<?xml version="1.0" encoding="UTF-8" standalone="no"?>
<svg
   xmlns:dc="http://purl.org/dc/elements/1.1/"
   xmlns:cc="http://creativecommons.org/ns#"
   xmlns:rdf="http://www.w3.org/1999/02/22-rdf-syntax-ns#"
   xmlns:svg="http://www.w3.org/2000/svg"
   xmlns="http://www.w3.org/2000/svg"
   xmlns:sodipodi="http://sodipodi.sourceforge.net/DTD/sodipodi-0.dtd"
   xmlns:inkscape="http://www.inkscape.org/namespaces/inkscape"
   xml:space="preserve"
   version="1.0"
   id="layer1"
   width="388.68268pt"
   height="307.89551pt"
   viewBox="0 0 72.878002 57.730408"
   sodipodi:docname="Photo_Icon_grey200.svg"
   inkscape:version="0.92.1 r"><defs
     id="defs12" /><sodipodi:namedview
     pagecolor="#ffffff"
     bordercolor="#666666"
     borderopacity="1"
     objecttolerance="10"
     gridtolerance="10"
     guidetolerance="10"
     inkscape:pageopacity="0"
     inkscape:pageshadow="2"
     inkscape:window-width="1920"
     inkscape:window-height="1136"
     id="namedview10"
     showgrid="false"
     inkscape:zoom="1.251579"
     inkscape:cx="317.57515"
     inkscape:cy="186.3797"
     inkscape:window-x="1280"
     inkscape:window-y="27"
     inkscape:window-maximized="1"
     inkscape:current-layer="layer1"
     fit-margin-top="10"
     fit-margin-left="10"
     fit-margin-right="10"
     fit-margin-bottom="10" /><metadata
     id="metadata1"><rdf:RDF><cc:Work
         rdf:about=""><dc:format>image/svg+xml</dc:format><dc:type
           rdf:resource="http://purl.org/dc/dcmitype/StillImage" /><dc:title></dc:title></cc:Work></rdf:RDF></metadata><path
     style="fill:#c8c8c8;stroke-width:0.07219167;fill-opacity:1"
     d="M 10.949758,53.940101 C 6.5671384,53.528113 2.8805598,49.39189 3.1523393,44.964725 c -0.03054,-8.817141 -0.05228,-17.635848 0.055481,-26.452244 0.3350263,-3.692459 3.3612138,-6.831194 6.9561037,-7.578373 1.151968,-0.179414 2.347533,-0.04283 3.516638,-0.09804 2.771507,-0.01808 5.543014,-0.03618 8.314522,-0.05426 0.03546,-3.6151075 2.424617,-7.0921109 5.876531,-8.2572621 2.279215,-0.7784508 4.735173,-0.3901341 7.095641,-0.5203762 3.189617,0.042819 6.397304,-0.1114426 9.575164,0.1721274 3.997363,0.6533616 7.109518,4.3982291 7.180254,8.4198429 0.126725,0.423786 0.968344,0.07607 1.377969,0.19456 3.422391,0.03701 6.852873,0.01538 10.270213,0.089 3.186521,0.644133 5.972353,3.024593 6.87719,6.181313 0.542963,1.83223 0.221588,3.782837 0.329415,5.666547 -0.0064,7.845169 0.09755,15.692652 -0.0346,23.536444 -0.444803,4.270215 -4.48076,7.95284 -8.826151,7.648334 -16.92196,0.07314 -33.844886,0.05397 -50.766962,0.02778 z m 28.190849,-6.196378 c 5.926932,-0.834949 11.106826,-5.38397 12.674974,-11.163503 1.462061,-5.230373 0.0279,-11.207025 -3.8814,-15.030272 -3.10047,-3.260243 -7.678309,-4.978716 -12.156396,-4.619929 -7.003302,0.315873 -13.226367,6.087763 -14.232999,12.997379 -0.753031,4.701133 0.738575,9.701214 4.065849,13.129003 3.409186,3.635827 8.599248,5.44326 13.529972,4.687322 z m -3.790064,-6.720494 c -4.283016,-0.686979 -7.645321,-4.909766 -7.217832,-9.257154 0.214571,-4.512747 4.422814,-8.397152 8.959939,-8.117196 4.630328,-0.04919 8.68531,4.222307 8.538397,8.823903 0.06449,4.576598 -4.00941,8.714143 -8.595827,8.654004 -0.562722,0.0047 -1.128412,-0.01185 -1.684677,-0.103561 z"
     id="path4496"
     inkscape:connector-curvature="0" /></svg>